# xmcd CD database file
#
# Track frame offsets:
#	150
#	11907
#	31053
#	49447
#	71613
#	90978
#	104867
#	121647
#	140082
#	153405
#	168710
#	189711
#	208589
#	223025
#	237564
#	256292
#
# Disc length: 3678 seconds
#
# Revision: 0
# Processed by: cddbd v1.4PL0 Copyright (c) Steve Scherf et al.
# Submitted via: CDex 1.40Release
#
DISCID=f00e5c10
DTITLE=Chris Wall - Just Another Place
DYEAR=2002
DGENRE=Country
TTITLE0=The Poet is Not in Today
TTITLE1=Old Broken Record
TTITLE2=An Outlaw's Blues
TTITLE3=Just Another Place
TTITLE4=Hank Williams' Cadillac
TTITLE5=Still in the Dark
TTITLE6=Five Peice Band
TTITLE7=Raining in Atlanta
TTITLE8=I Just Got Used to Lovin' You
TTITLE9=Ten Cents on the Dollar
TTITLE10=The Jagged Edge
TTITLE11=Love is Just a Place
TTITLE12=Somewhere Between Forty and Fallin' Apart
TTITLE13=Color it Blue
TTITLE14=Canadian Rockies
TTITLE15=Hidden Track - Just Another Place
EXTD=YEAR: 2002 ID3G: 2
EXTT0=
EXTT1=
EXTT2=
EXTT3=
EXTT4=
EXTT5=
EXTT6=
EXTT7=
EXTT8=
EXTT9=
EXTT10=
EXTT11=
EXTT12=
EXTT13=
EXTT14=
EXTT15=
PLAYORDER=
